<?xml version="1.0" standalone="no"?>
<!DOCTYPE svg PUBLIC "-//W3C//DTD SVG 20010904//EN"
 "http://www.w3.org/TR/2001/REC-SVG-20010904/DTD/svg10.dtd">
<svg version="1.0" xmlns="http://www.w3.org/2000/svg"
 width="600.000000pt" height="600.000000pt" viewBox="0 0 600.000000 600.000000"
 preserveAspectRatio="xMidYMid meet">
<metadata>
Created by potrace 1.14, written by Peter Selinger 2001-2017
</metadata>
<g transform="translate(0.000000,600.000000) scale(0.100000,-0.100000)"
fill="#000000" stroke="none">
<path d="M3370 3477 c0 -1475 3 -1393 -61 -1490 -36 -55 -109 -111 -182 -140
-38 -15 -77 -20 -142 -21 -81 -1 -96 2 -157 31 -40 19 -89 53 -119 83 -88 88
-118 185 -119 383 l0 97 -375 0 -375 0 0 -189 c0 -215 14 -315 61 -445 108
-300 354 -498 719 -579 84 -19 127 -21 360 -21 237 0 276 2 368 22 344 75 585
246 713 507 27 55 59 136 71 180 l23 80 3 1423 2 1422 -395 0 -395 0 0 -1343z"/>
</g>
</svg>
